<svg xmlns="http://www.w3.org/2000/svg" viewBox="0 0 512 512">
  <defs>
    <linearGradient id="bg" x1="0%" y1="0%" x2="100%" y2="100%">
      <stop offset="0%" style="stop-color:#0f1114"/>
      <stop offset="100%" style="stop-color:#0a0b0f"/>
    </linearGradient>
    <linearGradient id="flame" x1="0%" y1="100%" x2="0%" y2="0%">
      <stop offset="0%" style="stop-color:#dc2626"/>
      <stop offset="50%" style="stop-color:#f97316"/>
      <stop offset="100%" style="stop-color:#fbbf24"/>
    </linearGradient>
    <linearGradient id="glow" x1="0%" y1="0%" x2="100%" y2="100%">
      <stop offset="0%" style="stop-color:#22c55e"/>
      <stop offset="100%" style="stop-color:#16a34a"/>
    </linearGradient>
  </defs>
  
  <!-- Background -->
  <rect width="512" height="512" rx="96" fill="url(#bg)"/>
  
  <!-- Outer glow ring -->
  <circle cx="256" cy="256" r="180" fill="none" stroke="url(#glow)" stroke-width="4" opacity="0.5"/>
  
  <!-- Flame icon -->
  <g transform="translate(156, 120)">
    <path d="M100 0C100 0 90 40 60 80C30 120 0 140 0 200C0 260 40 300 100 300C160 300 200 260 200 200C200 140 170 120 140 80C110 40 100 0 100 0Z" fill="url(#flame)"/>
    <path d="M100 80C100 80 90 110 70 140C50 170 40 190 40 220C40 260 65 280 100 280C135 280 160 260 160 220C160 190 150 170 130 140C110 110 100 80 100 80Z" fill="#fef3c7"/>
  </g>
  
  <!-- Neon accent -->
  <circle cx="256" cy="256" r="200" fill="none" stroke="#22c55e" stroke-width="2" opacity="0.3"/>
</svg>
